<?xml version="1.0" standalone="no"?>
<!DOCTYPE svg PUBLIC "-//W3C//DTD SVG 1.1//EN" "http://www.w3.org/Graphics/SVG/1.1/DTD/svg11.dtd" >
<svg xmlns="http://www.w3.org/2000/svg">
<metadata>Generated by IcoMoon</metadata>
<defs>
<font id="icomoon" horiz-adv-x="1024">
<font-face units-per-em="1024" ascent="960" descent="-64" />
<missing-glyph horiz-adv-x="1024" />
<glyph unicode="&#x20;" horiz-adv-x="512" d="" />
<glyph unicode="&#xe900;" glyph-name="eletro" horiz-adv-x="723" d="M330.959 846.201c0-35.158-28.501-63.658-63.658-63.658s-63.658 28.501-63.658 63.658c0 35.158 28.501 63.658 63.658 63.658s63.658-28.501 63.658-63.658zM188.788 819.801c6.253 0 11.317 4.708 11.317 10.514v24.595c0 3.873-2.28 7.22-5.639 9.045 7.996 32.8 37.609 57.219 72.839 57.219 35.224 0 64.835-24.419 72.831-57.219-3.358-1.825-5.639-5.172-5.639-9.045v-24.595c0-5.806 5.064-10.514 11.317-10.514 6.25 0 11.317 4.708 11.317 10.514v24.595c0 4.912-3.641 9.003-8.544 10.157-8.578 36.959-41.751 64.595-81.282 64.595-39.539 0-72.715-27.633-81.29-64.595-4.9-1.154-8.542-5.245-8.542-10.157v-24.595c-0.003-5.806 5.064-10.514 11.314-10.514zM378.199 911.509c-1.030-0.461-2.057-0.973-3.041-1.655-2.886-1.972-5.506-4.861-7.447-8.46-4.974-9.238-3.565-19.669 3.155-23.291 6.725-3.619 16.209 0.931 21.186 10.18 3.955 7.339 3.822 15.369 0.257 20.198l0.071 0.088-16.113 25.214c-3.010 4.711-0.905 8.7 4.677 8.87l13.385 0.402c5.582 0.167 12.61-3.545 15.618-8.247l12.534-19.61c-1.027-0.456-2.057-0.976-3.047-1.649-2.877-1.978-5.5-4.861-7.435-8.462-4.98-9.243-3.565-19.666 3.157-23.285 6.717-3.621 16.192 0.931 21.171 10.171 3.955 7.336 3.825 15.374 0.26 20.209l0.068 0.082-25.421 39.774c-3.008 4.702-10.024 8.278-15.601 7.942l-0.008-0.003-36.464-2.215c-5.571-0.34-7.673-4.465-4.66-9.172l23.698-37.080zM265.314 603.954c13.781 9.605 25.707 19.103 35.355 28.089 2.111 22.377 10.316 41.222 22.029 61.452 3.675-2.872 6.799-6.159 8.723-9.32 0.549-0.917 0.999-1.799 1.389-2.679 1.004-2.261 1.522-4.513 1.55-7.314 0-1.276-0.124-2.725-0.444-4.411 0-0.011-0.003-0.020-0.003-0.031-1.112-5.837-4.9-14.848-14.964-26.841-10.035-11.999-26.205-26.717-50.392-43.582-9.119-6.369-12.092-18.235-7.605-27.996h46.14c20.057 15.004 35.224 29.011 46.553 42.501 13.419 16.019 21.579 31.583 24.651 47.113 0.031 0.139 0.071 0.272 0.099 0.413 0.815 4.315 1.234 8.612 1.234 12.834 0.008 2.693-0.207 5.313-0.526 7.885-1.333 10.601-5.251 20.091-10.279 27.648-9.464 14.186-21.833 22.736-31.617 28.378-9.843 5.579-17.445 8.114-18.404 8.445-1.055 0.348-2.113 0.586-3.177 0.775-0.727 0.283-1.451 0.509-2.167 0.673-34.698 7.715-69.396 15.436-104.1 23.155-0.982 0.226-2.108 0.311-3.29 0.331-8.191 4.357-18.619 10.68-28.595 18.945-10.129 8.332-19.706 18.532-26.516 30.205-6.816 11.727-11.062 24.702-11.102 40.368 0.017 15.253 4.125 33.51 15.923 55.711 5.876 11.034 1.7 24.745-9.334 30.618-11.034 5.876-24.742 1.695-30.618-9.334-14.658-27.467-21.256-53.351-21.239-76.996-0.040-25.067 7.469-47.096 18.297-64.923 15.173-24.943 36.172-42.244 54.11-54.022-12.616-66.092-4.422-109.368 10.18-170.721h77.694c-4.131 11.693-0.201 25.189 10.448 32.63zM388.317 546.797v13.204h-215.732v-13.204h-49.512v13.204h-21.219v-13.204h-14.854v13.204h-21.219v-13.204h-14.854v13.204h-21.219v-13.204h-29.707v-405.997h451.268v405.997zM722.762 551.044h-240.307v-410.244h240.307v410.244zM597.66 176.519c-35.547 0-64.366 28.816-64.366 64.366 0 35.547 28.819 64.366 64.366 64.366s64.366-28.819 64.366-64.366c0-35.55-28.819-64.366-64.366-64.366zM602.611 342.739c-47.659 0-86.293 38.634-86.293 86.293 0 47.656 38.634 86.293 86.293 86.293s86.293-38.636 86.293-86.293c0-47.662-38.636-86.293-86.293-86.293zM642.221 429.032c0-21.876-17.734-39.61-39.61-39.61s-39.61 17.734-39.61 39.61c0 21.876 17.734 39.61 39.61 39.61s39.61-17.734 39.61-39.61zM627.203 240.882c0-16.318-13.228-29.546-29.546-29.546s-29.546 13.228-29.546 29.546c0 16.318 13.228 29.546 29.546 29.546s29.546-13.228 29.546-29.546z" />
<glyph unicode="&#xe901;" glyph-name="rock" horiz-adv-x="512" d="M362.122 515.354c0.886-0.307 1.731-0.681 2.606-1.024 1.408-0.568 2.826-1.172 4.188-1.848 0.732-0.358 1.475-0.722 2.186-1.111 1.997-1.091 3.973-2.248 5.842-3.569 0.041-0.026 0.087-0.046 0.113-0.072v94.761c0 29.046-23.777 52.813-52.828 52.813-29.046 0-52.818-23.772-52.818-52.813v-77.42l75.837-6.574c5.13-0.399 10.112-1.49 14.874-3.144zM176.783 532.813l0.952 0.026c1.91 0.036 3.794-0.005 5.699-0.143l3.835-0.333c0.84-0.026 1.357-0.046 1.889-0.108 0.23-0.026 0.456-0.067 0.691-0.108l64.215-5.565v123.443c0 29.051-23.777 52.818-52.823 52.818s-52.818-23.772-52.818-52.818v-122.849c7.352 2.698 15.048 4.541 22.968 5.212 1.531 0.21 3.456 0.358 5.391 0.425zM109.568 499.277c6.072 7.654 13.394 14.116 21.509 19.318v388.593c0.005 29.041-23.772 52.813-52.823 52.813s-52.823-23.772-52.823-52.813v-543.872l73.39 118.641c2.888 6.129 6.502 11.955 10.747 17.321zM28.682 198.666c0.072-0.026 0.64-0.497 1.475-1.172l94.925-91.878-48.911-169.615h394.255l-17.121 180.777 54.139 224.476c2.959 9.472 4.552 19.543 4.552 29.988 0 8.75-1.229 17.193-3.318 25.288v0.43c-3.128 14.1-6.164 28.237-9.334 42.332-5.709 25.283-10.788 50.749-17.137 75.868-3.292 13.061-5.391 26.132-6.717 39.229-2.908 28.908-1.818 57.953-1.807 87.357 0 38.543 0 132.844 0 141.46 0 21.873-17.905 39.777-39.772 39.777-21.878 0-39.788-17.9-39.788-39.777 0 0 0-267.899-0.102-293.596 4.598-7.532 7.378-15.913 8.356-24.627 0.061-0.645 0.22-1.27 0.282-1.92 0.23-3.057 0.261-6.144 0.010-9.252-1.203-15.995-8.632-30.597-20.874-41.103-2.985-2.555-6.154-4.777-9.477-6.682-0.584-0.328-1.178-0.614-1.777-0.922-1.050-0.558-2.099-1.106-3.174-1.597-0.686-0.317-1.398-0.584-2.084-0.876-1.014-0.415-2.033-0.814-3.072-1.178-0.727-0.256-1.469-0.481-2.212-0.712-1.034-0.317-2.084-0.599-3.128-0.86-0.748-0.184-1.5-0.353-2.243-0.512-1.091-0.225-2.202-0.41-3.308-0.568-0.727-0.108-1.439-0.225-2.171-0.307-1.219-0.128-2.458-0.2-3.712-0.261-0.609-0.031-1.224-0.092-1.833-0.108-1.864-0.026-3.738 0.015-5.622 0.164l-113.92 9.108-34.959-47.77c10.286 2.396 67.313 14.075 122.895-4.746 2.504-0.855 5.012-1.772 7.496-2.744 0.266-0.097 0.512-0.2 0.758-0.302 2.212-0.881 4.408-1.812 6.61-2.79 0.481-0.215 0.963-0.44 1.439-0.66 1.951-0.896 3.901-1.838 5.837-2.831 0.645-0.328 1.285-0.655 1.94-0.998 1.761-0.932 3.523-1.915 5.268-2.924 0.742-0.435 1.485-0.86 2.227-1.306 1.628-0.978 3.251-2.022 4.864-3.077 0.814-0.532 1.628-1.050 2.432-1.603 1.546-1.055 3.072-2.176 4.588-3.308 0.829-0.609 1.659-1.188 2.458-1.818 1.577-1.213 3.113-2.499 4.644-3.799 0.732-0.609 1.454-1.172 2.171-1.807 2.227-1.951 4.424-3.968 6.564-6.103 2.924-2.893 2.939-7.613 0.046-10.542-0.015-0.020-0.046-0.020-0.061-0.046-1.454-1.434-3.348-2.156-5.238-2.156-0.015 0-0.031 0.015-0.046 0.015-0.932 0-1.848 0.174-2.719 0.527-0.906 0.353-1.751 0.896-2.473 1.613-3.062 3.046-6.246 5.816-9.482 8.448-0.512 0.415-1.004 0.845-1.531 1.254-3.154 2.504-6.39 4.823-9.682 6.979-0.481 0.317-0.973 0.62-1.454 0.927-62.351 39.731-143.544 19.948-147.389 18.975l-18.545-4.669c-3.036-0.763-6.246 0.456-7.997 3.062-1.756 2.611-1.69 6.031 0.169 8.571l49.608 67.789c1.521 2.089 3.978 3.226 6.61 3.026l118.042-9.441c12.012-0.901 23.7 2.939 32.932 10.86 1.807 1.551 3.436 3.256 4.951 5.023 0.015 0.005 0.015 0.005 0.015 0.010 6.231 7.27 10.030 16.23 10.762 25.892 0.128 1.72 0.143 3.43 0.087 5.13-0.031 0.471-0.072 0.927-0.102 1.388-0.015 0.328-0.046 0.655-0.077 0.978-0.087 0.922-0.189 1.843-0.333 2.755-0.087 0.573-0.174 1.142-0.292 1.71-0.113 0.625-0.236 1.249-0.379 1.869 0 0.005 0 0.015 0 0.031-0.128 0.538-0.307 1.070-0.451 1.603-0.128 0.481-0.246 0.963-0.394 1.434-1.807 5.765-4.762 11.182-8.822 15.933-0.031 0.036-0.061 0.082-0.087 0.118-7.921 9.231-18.913 14.817-30.94 15.734l-158.065 13.732c-0.271 0.026-0.532 0.061-0.788 0.108-0.497 0.015-0.876 0.031-1.254 0.072l-3.676 0.317c-1.377 0.102-2.811 0.118-4.234 0.102-2.145-0.072-3.589-0.179-5.012-0.364-2.309-0.195-4.598-0.527-6.856-0.942-1.275-0.225-2.519-0.538-3.768-0.829-0.865-0.205-1.741-0.389-2.601-0.63-1.659-0.445-3.282-0.973-4.9-1.531-0.328-0.118-0.676-0.236-1.009-0.353-1.838-0.671-3.645-1.398-5.422-2.207-0.010 0-0.010 0-0.015-0.005-8.402-3.809-16.046-9.093-22.467-15.724-1.649-1.69-3.226-3.466-4.7-5.33-3.615-4.567-6.676-9.533-9.114-14.766-0.123-0.266-0.266-0.532-0.415-0.773l-100.019-161.715c-2.181-4.009-4.163-8.796-5.699-13.875-4.035-10.962-6.006-21.827-6.006-32.712 0-25.057 9.82-48.579 27.643-66.248 0.389-0.384 0.737-0.814 1.039-1.27z" />
<glyph unicode="&#xe902;" glyph-name="samba" horiz-adv-x="819" d="M697.754 711.569c36.954 0 67.879 10.699 76.415 25.117 1.54 2.58 2.433 5.251 2.433 8.028 0 18.301-35.299 33.145-78.848 33.145s-78.848-14.844-78.848-33.145c0-2.777 0.893-5.448 2.433-8.028 8.544-14.418 39.461-25.117 76.415-25.117zM776.602 718.148c0 2.777-0.893 5.456-2.433 8.020-8.536-14.418-39.461-25.125-76.415-25.125s-67.871 10.707-76.415 25.125c-1.54-2.572-2.433-5.251-2.433-8.020 0-17.736 33.153-32.178 74.818-33.063-0.115-2.72-0.205-5.448-0.565-8.135-0.295-2.195-1.622-5.3-3.441-6.095-5.636-2.441-7.143-6.693-7.422-11.633-0.279-4.915-0.074-9.855-0.074-14.795-9.88-2.105-18.932-2.482-28.975-1.835-26.46 1.696-80.224-4.874-88.924 2.941-19.759 17.719-89.154 92.742-91.12 93.053 0 5.202-0.557 10.51 0.139 15.663 1.098 8.2 2.22 16.278 9.789 22.561 7.422 6.128 13.771 13.402 20.316 20.398 14.492 15.499 23.257 33.21 22.372 54.059-0.254 5.939 1.655 7.225 7.471 8.88 8.126 2.31 25.412 13.713 28.115 21.135-9.347-0.893-33.268 1.384-39.412-4.751-1.458 4.227-7.823 43.909-21.332 42.213-6.316-0.795-40.108-5.972-50.528-9.716-26.223-9.429-28.893-23.536-31.384-45.113-12.517-4.792-31.818-9.839-39.87-18.309 2.998-6.234 27.009-5.923 44.646-8.135-0.344-11.395-1.376-23.446-0.721-35.422 0.238-4.514-0.623-6.537-4.604-8.249-11.1-4.743-22.151-9.593-31.793-13.787-4.112 2.359-29.303 14.287-41.583 13.14-10.445-0.983-100.573 9.232-117.293 4.129-28.91-8.839-98.755-32.85-105.071-35.176 0.27-1.032 0.983-6.816 1.843-14.328l-26.903-6.357c-4.907 0-51.159-2.859-54.534-7.832-3.391-4.973 27.812-16.974 32.702-16.974h52.085c0.762-7.258 1.278-12.452 1.278-12.452 13.877 7.078 79.061 40.985 102.113 37.88 4.301-0.582 52.314-2.4 71.819-3.555-5.186-11.076-69.976-69.304-60.703-217.063 15.188 3.801 15.090 19.579 17.277 31.719 44.851-252.559 150.979-318.947 141.173-323.887-24.74-12.468-59.802-33.44-53.346-46.965 3.875-8.118 115.835 21.242 103.113 42.516-1.343 2.236-48.693 59.638-72.335 135.733 136.88-102.269 143.008-86.196 137.077-93.446-16.982-20.783-39.592-53.24-27.705-63.103 7.152-5.923 96.117 63.439 75.039 77.98-2.654 1.835-101.204 50.733-157.483 135.414-12.059 18.121-24.363 34.316-35.938 48.398 8.937 43.409 32.055 69.28 32.055 69.28 4.899-15.507 14.131-47.342 28.721-47.219 18.62 0.164 84.353 32.096 73.859 43.311-44.728 47.743-29.999 124.166-22.577 127.59 4.162-4.055 54.813-69.853 90.448-64.709 22.684 3.269 87.777 14.787 97.501 19.374 6.414 3.006 35.447-1.393 39.789 0.459 11.682 5.022 19.055 28.508 14.655 39.682-4.129 10.527-7.389 21.348-11.010 32.072 36.512 2.875 64.127 16.327 64.127 32.522zM263.348 585.282c2.236 7.987 4.579 15.532 6.963 22.888l126.19-46.055c0.27-3.162 0.582-6.226 0.983-9.126-103.047 4.186-36.839 21.594-134.136 32.293zM395.993 580.186l-120.259 43.876c2.957 8.233 5.997 16.097 9.118 23.503l113.181-42.959c-1.237-8.675-1.901-16.835-2.040-24.42zM401.097 621.441l-109.388 41.517c4.456 9.511 9.019 18.301 13.648 26.37l101.695-45.613c-2.441-7.741-4.391-15.147-5.956-22.274zM412.713 659.657l-98.501 44.188c4.186 6.455 8.372 12.37 12.567 17.818l94.208-42.426c-3.088-6.701-5.841-13.23-8.274-19.579zM428.392 694.391l-90.464 40.739c5.997 6.693 11.878 12.444 17.555 17.392l84.14-37.896c-4.096-6.898-7.823-13.64-11.231-20.234zM458.17 743.428c-3.383-4.85-6.545-9.617-9.601-14.336l-78.029 35.144c21.873 15 38.191 17.744 40.673 17.908 12.411 6.3 30.851-13.337 35.488-10.682 7.889 4.514 13.591 12.935 21.185 17.859 1.581 1.032-2.761 7.029-4.588 6.095-7.414-3.768-13.926-5.718-21.463-10.093-11.665 15.679-11.346 52.314-3.539 51.814 27.46-1.753 78.086 16.597 79.651 16.671 0.352-18.932-6.308-35.16-18.809-49.201-8.151-9.15-17.555-17.351-25.887-26.37-5.636-6.119-15.081-34.808-15.081-34.808z" />
<glyph unicode="&#xe903;" glyph-name="sertanejo" horiz-adv-x="819" d="M281.259 611.385c-38.229-30.948-30.948-56.434-54.613-80.1-26.396-26.396-111.957-23.666-156.558-68.267-92.843-92.843 7.282-195.698 31.858-220.274s128.341-123.79 220.274-31.858c44.601 44.601 41.87 130.162 68.267 156.558 23.666 23.666 49.152 16.384 80.1 54.613s37.319 89.202-30.948 158.379-120.149 61.895-158.379 30.948zM241.209 324.665l-15.474-15.474c-1.82-1.82-3.641-1.82-5.461 0l-51.883 51.883c-1.82 1.82-1.82 3.641 0 5.461l15.474 15.474c1.82 1.82 3.641 1.82 5.461 0l51.883-51.883c1.82-0.91 1.82-3.641 0-5.461zM367.73 447.545c-17.294-17.294-44.601-17.294-61.895 0s-17.294 44.601 0 61.895c17.294 17.294 44.601 17.294 61.895 0s17.294-45.511 0-61.895zM643.527 812.544c-0.91 0.91-3.641 0.91-4.551 0l-209.351-202.069c-0.91-0.91-0.91-2.731 0-3.641 6.372-5.461 12.743-10.923 19.115-17.294s11.833-12.743 17.294-19.115c0.91-0.91 2.731-0.91 3.641 0l202.069 209.351c0.91 0.91 0.91 3.641 0 4.551l-28.217 28.217zM787.342 886.272c-1.82 4.551-3.641 10.012-2.731 13.653s-1.82 5.461-2.731 9.102c-0.91 2.731 2.731 7.282-2.731 12.743s-9.102 1.82-12.743 2.731c-3.641 0.91-4.551 3.641-9.102 2.731s-9.102 0.91-13.653 2.731c-2.731 0-6.372-4.551-6.372-4.551s-8.192-8.192-19.115-20.025c-3.641 3.641-10.012 3.641-14.564 0-3.641-3.641-3.641-10.012 0-14.564 0 0-4.551-4.551-7.282-7.282-3.641 3.641-10.012 3.641-14.564 0-3.641-3.641-3.641-10.012 0-14.564 0 0-5.461-6.372-8.192-8.192-4.551 3.641-10.923 3.641-14.564-0.91s-3.641-10.923 0.91-14.564l-11.833-20.025c-0.91-0.91-0.91-2.731 0.91-3.641l30.037-30.037c0.91-0.91 2.731-0.91 3.641-0.91l20.025 11.833c3.641-4.551 10.012-4.551 14.564-0.91s4.551 10.012 0.91 14.564c2.731 1.82 8.192 8.192 8.192 8.192 3.641-3.641 10.012-4.551 14.564 0 3.641 3.641 4.551 10.012 0 14.564 2.731 2.731 7.282 7.282 7.282 7.282 3.641-3.641 10.012-4.551 14.564 0 3.641 3.641 4.551 10.012 0 14.564 13.653 9.102 21.845 17.294 21.845 17.294s4.551 3.641 2.731 8.192zM679.936 828.018c-0.91-0.91-2.731-1.82-3.641-1.82-1.82 0-2.731 0-3.641 1.82-0.91 0.91-1.82 2.731-1.82 3.641 0 1.82 0 2.731 1.82 3.641l57.344 60.985c0 0 0 0 0 0 0.91 0.91 1.82 1.82 3.641 1.82s2.731 0 3.641-1.82 1.82-5.461 0-7.282l-57.344-60.985zM756.395 869.888l-60.985-57.344c-0.91-0.91-2.731-1.82-3.641-1.82-1.82 0-2.731 0.91-3.641 1.82s-1.82 2.731-1.82 3.641c0 0.91 0.91 2.731 1.82 3.641 0 0 0 0 0 0l60.985 58.254c0.91 0.91 2.731 1.82 3.641 1.82 1.82 0 2.731-0.91 3.641-1.82 1.82-2.731 1.82-6.372 0-8.192z" />
<glyph unicode="&#xe904;" d="M384.908 704.717l-45.561-225.799c-2.567-12.534-3.843-20.733-3.843-24.603 0-3.734 0.874-7.735 2.621-12.001-13.851-6.799-26.289-10.199-37.308-10.199-6.991 0-10.486 2.799-10.486 8.397 0 2.799 1.345 11.066 4.035 24.801l47.998 239.398h-28.030c-31.867 0-59.365-2.997-82.487-8.998 4.437 17.729 10.417 28.802 17.947 33.198 7.53 4.403 24.003 6.601 49.411 6.601h136.533c36.7 0 60.969 13.128 72.806 39.397 4.697-7.871 7.052-14.199 7.052-18.999 0-17.333-10.807-31.273-32.42-41.8-13.025-6.267-37.724-9.4-74.103-9.4h-24.166z" />
<glyph unicode="&#xe905;" d="M491.998 628.518c-3.229 6.929-4.84 14.070-4.84 21.402 0 24.003 18.487 45.5 55.467 64.498 36.973 18.999 78.855 28.501 125.638 28.501 49.213 0 87.968-10.8 116.265-32.399 28.303-21.6 42.455-51.2 42.455-88.801 0-49.999-21.982-94.071-65.946-132.198-23.258-20.132-52.333-36.598-87.224-49.398-34.884-12.8-68.267-19.203-100.127-19.203-30.659 0-45.984 11.401-45.984 34.202 0 8.267 2.628 25.327 7.864 51.2l26.221 130.601c2.28 11.203 3.427 19.265 3.427 24.201 0 4.669-1.611 8.929-4.84 12.8 17.879 6.67 30.317 10.001 37.315 10.001 8.335 0 12.5-4.799 12.5-14.397 0-2.273-2.15-13.933-6.451-35l-21.982-109.397c-5.523-27.873-8.274-45.397-8.274-52.599 0-8.001 2.724-13.428 8.172-16.282 5.441-2.854 15.695-4.294 30.754-4.321 48.804 0.027 89.668 14.766 122.593 44.223s49.405 65.98 49.432 109.582c-0.027 33.731-12.001 60.73-35.922 80.978-23.914 20.255-55.774 30.399-95.573 30.426-32.399-0.027-62.621-7.769-90.651-23.224-28.037-15.462-51.466-37.26-70.287-65.393z" />
<glyph unicode="&#xe906;" d="M691.323 648.998c-8.356 3.973-32.604-29.464-54.149-74.711-21.524-45.22-32.229-85.122-23.866-89.095 8.369-3.98 62.86 15.039 84.398 60.279 21.538 45.233 1.966 99.533-6.383 103.526z" />
<glyph unicode="&#xe907;" d="M168.619 297.813h-22.118v68.813h-25.805v17.203h73.728v-17.203h-25.805v-68.813z" />
<glyph unicode="&#xe908;" d="M238.046 347.334c-1.72 0-3.461 0-5.222 0s-3.338-0.164-4.731-0.492c-1.638-0.498-3.236-0.922-4.792-1.249v-47.78h-21.504v86.016h21.504v-22.18c2.376 0.505 4.792 0.928 7.25 1.263 2.13 0.335 4.403 0.635 6.82 0.887 2.417 0.246 4.69 0.375 6.82 0.375h5.53c5.571 0 10.035-1.679 13.394-5.031 3.359-3.359 5.038-7.823 5.038-13.401v-47.93h-21.504v45.24c0 1.222-0.416 2.239-1.229 3.058-0.819 0.812-1.843 1.222-3.072 1.222h-4.301z" />
<glyph unicode="&#xe909;" d="M277.982 344.61c0 6.117 1.734 10.902 5.222 14.363 3.482 3.468 8.294 5.195 14.438 5.195h24.576c6.144 0 10.95-1.741 14.438-5.222 3.482-3.488 5.222-8.294 5.222-14.438v-22.733h-42.394v-4.656c0-1.161 0.41-2.137 1.229-2.908s1.843-1.161 3.072-1.161c3.523 0 7.352 0 11.489 0 4.13 0 8.008 0 11.612 0 4.178 0.457 8.356 0.928 12.534 1.386v-15.394c-4.751-0.662-9.632-0.99-14.623-0.99-4.26-0.73-8.888-1.106-13.885-1.106s-9.83 0-14.5 0c-5.571 0-10.035 1.666-13.394 5.004s-5.038 7.789-5.038 13.326v29.334zM304.394 348.809c-3.277 0-4.915-1.638-4.915-4.915v-6.758h20.89v6.758c0 3.27-1.638 4.915-4.915 4.915h-11.059z" />
<glyph unicode="&#xe90a;" d="M438.948 383.829c9.257 0 16.288-2.396 21.074-7.188 4.792-4.792 7.195-11.817 7.195-21.074v-29.491c0-9.25-2.403-16.282-7.195-21.074-4.785-4.792-11.817-7.188-21.074-7.188h-47.923v86.016h47.923zM445.092 355.567c0 7.373-3.686 11.059-11.059 11.059h-20.89v-51.616h20.89c7.373 0 11.059 3.686 11.059 11.059v29.498z" />
<glyph unicode="&#xe90b;" d="M505.31 360.482v-62.669h-21.504v46.080h-9.216v16.589h30.72zM483.799 385.058h21.504v-17.21h-21.504v17.21z" />
<glyph unicode="&#xe90c;" d="M583.946 316.245c0-6.144-1.741-10.957-5.222-14.438-3.488-3.482-8.301-5.222-14.438-5.222h-28.269c-6.137 0-10.95 1.741-14.432 5.222-3.488 3.482-5.229 8.294-5.229 14.438v28.262c0 6.144 1.741 10.95 5.229 14.438 3.482 3.482 8.294 5.222 14.432 5.222h28.269c6.137 0 10.95-1.741 14.438-5.222 3.482-3.488 5.222-8.294 5.222-14.438v-28.262zM562.442 342.665c0 3.27-1.638 4.915-4.915 4.915h-14.746c-3.27 0-4.915-1.638-4.915-4.915v-24.583c0-3.27 1.638-4.915 4.915-4.915h14.746c3.27 0 4.915 1.638 4.915 4.915v24.583z" />
<glyph unicode="&#xe90d;" d="M614.052 362.94l1.229-6.144c2.13 1.393 4.417 2.621 6.881 3.686 2.13 0.901 4.506 1.741 7.127 2.519s5.325 1.167 8.11 1.167h5.53c5.571 0 10.035-1.679 13.394-5.031 3.359-3.359 5.038-7.823 5.038-13.401v-47.923h-21.504v44.237c0 1.229-0.41 2.246-1.229 3.065s-1.85 1.236-3.072 1.236h-4.301c-1.563 0-3.195-0.13-4.915-0.375s-3.318-0.532-4.792-0.86c-1.72-0.328-3.4-0.73-5.038-1.229v-46.073h-21.497v65.126h19.040z" />
<glyph unicode="&#xe90e;" d="M699.453 360.482v-62.669h-21.504v46.080h-9.216v16.589h30.72zM677.949 385.058h21.504v-17.21h-21.504v17.21z" />
<glyph unicode="&#xe90f;" d="M729.552 342.665c0-1.236 0.416-2.253 1.236-3.072 0.812-0.819 1.843-1.229 3.065-1.229h22.118c5.571 0 10.035-1.666 13.394-4.997 3.359-3.325 5.038-7.755 5.038-13.271v-4.874c0-5.523-1.679-9.946-5.038-13.271s-7.823-4.99-13.394-4.99c-5.243 0-10.609 0-16.090 0-5.495 0-10.534 0.369-15.121 1.099-5.325 0-10.486 0.328-15.483 0.969v15.933c4.424-0.471 8.888-0.942 13.394-1.413 3.932 0 8.192 0 12.78 0s8.97 0 13.148 0c1.236 0 2.253 0.396 3.072 1.181 0.819 0.778 1.229 1.761 1.229 2.942v4.103h-26.419c-5.564 0-10.035 1.679-13.394 5.038s-5.031 7.823-5.031 13.394v4.301c0 5.571 1.673 10.035 5.031 13.394s7.823 5.038 13.394 5.038h41.779v-15.974h-34.406c-1.229 0-2.253-0.416-3.065-1.236-0.819-0.812-1.236-1.836-1.236-3.065z" />
<glyph unicode="&#xe910;" d="M808.817 360.482v-62.669h-21.504v46.080h-9.216v16.589h30.72zM787.306 385.058h21.504v-17.21h-21.504v17.21z" />
<glyph unicode="&#xe911;" d="M887.453 316.245c0-6.144-1.741-10.957-5.222-14.438-3.488-3.482-8.301-5.222-14.438-5.222h-28.269c-6.137 0-10.95 1.741-14.432 5.222-3.488 3.482-5.229 8.294-5.229 14.438v28.262c0 6.144 1.741 10.95 5.229 14.438 3.482 3.482 8.294 5.222 14.432 5.222h28.269c6.137 0 10.95-1.741 14.438-5.222 3.482-3.488 5.222-8.294 5.222-14.438v-28.262zM865.949 342.665c0 3.27-1.638 4.915-4.915 4.915h-14.746c-3.27 0-4.915-1.638-4.915-4.915v-24.583c0-3.27 1.638-4.915 4.915-4.915h14.746c3.27 0 4.915 1.638 4.915 4.915v24.583z" />
<glyph unicode="&#xe912;" d="M412.215 602.317l-45.561-225.799c-2.567-12.534-3.843-20.733-3.843-24.603 0-3.734 0.874-7.735 2.621-12.001-13.851-6.799-26.289-10.199-37.308-10.199-6.991 0-10.486 2.799-10.486 8.397 0 2.799 1.345 11.066 4.035 24.801l47.998 239.398h-28.030c-31.867 0-59.365-2.997-82.487-8.998 4.437 17.729 10.417 28.802 17.947 33.198 7.53 4.403 24.003 6.601 49.411 6.601h136.533c36.7 0 60.976 13.128 72.806 39.397 4.697-7.871 7.052-14.199 7.052-18.999 0-17.333-10.807-31.273-32.42-41.8-13.025-6.267-37.724-9.4-74.103-9.4h-24.166z" />
<glyph unicode="&#xe913;" d="M519.305 526.118c-3.229 6.929-4.84 14.070-4.84 21.402 0 24.003 18.487 45.5 55.467 64.498 36.973 18.999 78.855 28.501 125.638 28.501 49.213 0 87.968-10.8 116.265-32.399 28.303-21.6 42.455-51.2 42.455-88.801 0-49.999-21.982-94.065-65.946-132.198-23.258-20.132-52.333-36.598-87.224-49.398-34.884-12.8-68.267-19.203-100.127-19.203-30.659 0-45.984 11.401-45.984 34.202 0 8.267 2.628 25.334 7.864 51.2l26.221 130.601c2.28 11.203 3.427 19.265 3.427 24.201 0 4.669-1.611 8.929-4.84 12.8 17.879 6.67 30.317 10.001 37.315 10.001 8.335 0 12.5-4.799 12.5-14.397 0-2.273-2.15-13.933-6.451-35l-21.982-109.397c-5.523-27.866-8.274-45.397-8.274-52.599 0-8.001 2.724-13.428 8.172-16.282 5.441-2.854 15.695-4.294 30.754-4.321 48.804 0.027 89.668 14.766 122.593 44.223s49.405 65.98 49.432 109.582c-0.027 33.731-12.001 60.73-35.922 80.978-23.914 20.255-55.774 30.399-95.573 30.426-32.399-0.027-62.621-7.769-90.651-23.224-28.037-15.462-51.466-37.26-70.287-65.393z" />
<glyph unicode="&#xe914;" d="M718.63 546.598c-8.356 3.973-32.604-29.464-54.149-74.711-21.524-45.22-32.229-85.122-23.866-89.095 8.369-3.98 62.86 15.039 84.398 60.279 21.538 45.233 1.966 99.533-6.383 103.526z" />
</font>
</defs>
</svg>
